<svg id="Layer_1" enable-background="new 0 0 256 256" height="512" viewBox="0 0 256 256" width="512" xmlns="http://www.w3.org/2000/svg"><g><circle cx="128" cy="120.25" fill="#9e9e9e" r="48.024"/><path d="m89.736 120.25c0-24.875 18.913-45.333 43.144-47.778-1.605-.162-3.232-.246-4.88-.246-26.523 0-48.024 21.501-48.024 48.024s21.501 48.024 48.024 48.024c1.647 0 3.275-.084 4.88-.246-24.231-2.445-43.144-22.903-43.144-47.778z" fill="#707070"/><path d="m166.264 120.25c0-24.875-18.913-45.333-43.144-47.778 1.605-.162 3.232-.246 4.88-.246 26.523 0 48.024 21.501 48.024 48.024s-21.501 48.024-48.024 48.024c-1.647 0-3.275-.084-4.88-.246 24.231-2.445 43.144-22.903 43.144-47.778z" fill="#cecece"/><g><circle cx="151.831" cy="117.542" fill="#f8af23" r="10.196"/><path d="m145.838 141.508-23.849-12.515v-22.912l23.849-12.515z" fill="#63bce7"/><path d="m145.838 93.566h5.993v47.943h-5.993z" fill="#f46275"/><path d="m101.931 106.081h20.058v22.922h-20.058z" fill="#f8af23"/><path d="m93.973 111.804h7.959v11.466h-7.959z" fill="#f46275"/><path d="m107.536 129.003h8.847v17.931h-8.847z" fill="#63bce7"/></g><path d="m146.641 59.329h-37.283c-2.759 0-4.996-2.237-4.996-4.996v-25.843c0-2.759 2.237-4.996 4.996-4.996h37.283c2.759 0 4.996 2.237 4.996 4.996v25.843c0 2.759-2.236 4.996-4.996 4.996z" fill="#f8af23"/><path d="m114.122 54.333v-25.843c0-2.759 2.237-4.996 4.996-4.996h-9.76c-2.759 0-4.996 2.237-4.996 4.996v25.843c0 2.759 2.237 4.996 4.996 4.996h9.76c-2.759 0-4.996-2.237-4.996-4.996z" fill="#f87023"/><path d="m146.641 217.006h-37.283c-2.759 0-4.996-2.237-4.996-4.996v-25.843c0-2.759 2.237-4.996 4.996-4.996h37.283c2.759 0 4.996 2.237 4.996 4.996v25.843c0 2.759-2.236 4.996-4.996 4.996z" fill="#f8af23"/><path d="m114.122 212.01v-25.843c0-2.759 2.237-4.996 4.996-4.996h-9.76c-2.759 0-4.996 2.237-4.996 4.996v25.843c0 2.759 2.237 4.996 4.996 4.996h9.76c-2.759 0-4.996-2.237-4.996-4.996z" fill="#f87023"/><g><path d="m143.552 206.411c0 1.739-1.423 3.162-3.162 3.162h-24.679c-1.739 0-3.162-1.423-3.162-3.162v-14.645c0-1.739 1.423-3.162 3.162-3.162h24.679c1.739 0 3.162 1.423 3.162 3.162z" fill="#9e9e9e"/><path d="m113.506 208.667c.571.558 1.348.905 2.205.905h24.679c.856 0 1.634-.348 2.205-.905l-14.544-13.754z" fill="#f46275"/><path d="m142.594 189.509c-.571-.558-1.348-.905-2.205-.905h-24.679c-.856 0-1.634.347-2.205.905l14.544 13.754z" fill="#63bce7"/></g><path d="m213.033 199.088h-37.283c-2.759 0-4.996-2.237-4.996-4.996v-25.842c0-2.759 2.237-4.996 4.996-4.996h37.283c2.759 0 4.996 2.237 4.996 4.996v25.843c0 2.758-2.237 4.995-4.996 4.995z" fill="#63bce7"/><path d="m213.033 163.253h-9.76c2.759 0 4.996 2.237 4.996 4.996v25.843c0 2.759-2.237 4.996-4.996 4.996h9.76c2.759 0 4.996-2.237 4.996-4.996v-25.842c0-2.76-2.237-4.997-4.996-4.997z" fill="#63e2e7"/><path d="m80.249 199.088h-37.282c-2.759 0-4.996-2.237-4.996-4.996v-25.842c0-2.759 2.237-4.996 4.996-4.996h37.283c2.759 0 4.996 2.237 4.996 4.996v25.843c0 2.758-2.237 4.995-4.997 4.995z" fill="#f46275"/><path d="m47.73 194.092v-25.842c0-2.759 2.237-4.996 4.996-4.996h-9.76c-2.759 0-4.996 2.237-4.996 4.996v25.843c0 2.759 2.237 4.996 4.996 4.996h9.76c-2.759-.001-4.996-2.238-4.996-4.997z" fill="#f43075"/><path d="m213.033 76.773h-37.283c-2.759 0-4.996-2.237-4.996-4.996v-25.843c0-2.759 2.237-4.996 4.996-4.996h37.283c2.759 0 4.996 2.237 4.996 4.996v25.843c0 2.759-2.237 4.996-4.996 4.996z" fill="#f46275"/><path d="m213.033 40.938h-9.76c2.759 0 4.996 2.237 4.996 4.996v25.843c0 2.759-2.237 4.996-4.996 4.996h9.76c2.759 0 4.996-2.237 4.996-4.996v-25.843c0-2.759-2.237-4.996-4.996-4.996z" fill="#f48875"/><path d="m80.249 76.773h-37.282c-2.759 0-4.996-2.237-4.996-4.996v-25.843c0-2.759 2.237-4.996 4.996-4.996h37.283c2.759 0 4.996 2.237 4.996 4.996v25.843c0 2.759-2.237 4.996-4.997 4.996z" fill="#63bce7"/><path d="m47.73 71.777v-25.843c0-2.759 2.237-4.996 4.996-4.996h-9.76c-2.759 0-4.996 2.237-4.996 4.996v25.843c0 2.759 2.237 4.996 4.996 4.996h9.76c-2.759 0-4.996-2.237-4.996-4.996z" fill="#6377e7"/><g><path d="m61.608 171.555v9.616h-9.616c0 5.311 4.305 9.616 9.616 9.616s9.616-4.305 9.616-9.616-4.305-9.616-9.616-9.616z" fill="#9e9e9e"/><path d="m61.608 171.555c-5.311 0-9.616 4.305-9.616 9.616h9.616z" fill="#f8af23"/></g><g fill="#f46275"><path d="m177.393 176.085h6.872v16.008h-6.872z"/><path d="m190.956 173.249h6.872v18.845h-6.872z"/><path d="m204.518 170.248h6.872v21.845h-6.872z"/></g><g fill="#321f7a"><path d="m100.432 129.003c0 .829.672 1.5 1.5 1.5h4.104v16.431c0 .829.672 1.5 1.5 1.5h8.848c.828 0 1.5-.671 1.5-1.5v-16.431h3.754l23.502 12.333v-.008c.209.111.444.179.697.179h5.993c.828 0 1.5-.671 1.5-1.5v-12.375c5.782-.74 10.196-5.666 10.196-11.591s-4.414-10.851-10.196-11.591v-12.384c0-.829-.672-1.5-1.5-1.5h-5.993c-.253 0-.488.069-.697.179v-.008l-23.521 12.343h-19.688c-.828 0-1.5.671-1.5 1.5v4.223h-6.459c-.828 0-1.5.671-1.5 1.5v11.466c0 .829.672 1.5 1.5 1.5h6.459v4.234zm60.095-11.461c0 4.274-3.087 7.848-7.196 8.561v-17.121c4.108.712 7.196 4.287 7.196 8.56zm-13.189-22.476h2.993v44.942h-2.993zm-32.454 50.368h-5.848v-14.931h5.848zm29.454-6.407-20.849-10.941v-21.099l20.849-10.941zm-40.906-31.446h17.058v19.922h-4.105-8.848-4.104v-4.233-11.466-4.223zm-7.959 14.189v-8.466h4.959v8.466z"/><path d="m140.39 187.104h-24.679c-2.57 0-4.662 2.091-4.662 4.662v14.645c0 2.57 2.092 4.662 4.662 4.662h24.679c2.57 0 4.662-2.091 4.662-4.662v-14.645c0-2.571-2.092-4.662-4.662-4.662zm-26.341 4.983 7.403 7.001-7.403 7.001zm14.001 9.112-11.732-11.095h23.465zm-4.415-.047 3.385 3.201c.289.273.659.41 1.03.41s.741-.137 1.03-.41l3.385-3.201 7.317 6.92h-23.465zm11.013-2.064 7.404-7.002v14.004z"/><path d="m61.608 170.055c-6.13 0-11.116 4.986-11.116 11.116s4.986 11.116 11.116 11.116c6.129 0 11.115-4.986 11.115-11.116s-4.986-11.116-11.115-11.116zm-1.5 3.139v6.477h-6.478c.616-3.275 3.204-5.862 6.478-6.477zm1.5 16.093c-3.963 0-7.271-2.855-7.978-6.616h7.978c.828 0 1.5-.671 1.5-1.5v-7.977c3.761.706 6.615 4.014 6.615 7.977.001 4.475-3.64 8.116-8.115 8.116z"/><path d="m67.284 45.189h-11.351c-4.406 0-7.991 3.584-7.991 7.991v11.352c0 4.406 3.585 7.991 7.991 7.991h11.352c4.406 0 7.99-3.585 7.99-7.991v-11.352c-.001-4.407-3.585-7.991-7.991-7.991zm4.99 19.342c0 2.752-2.238 4.991-4.99 4.991h-11.351c-2.752 0-4.991-2.239-4.991-4.991v-11.351c0-2.752 2.239-4.991 4.991-4.991h11.352c2.752 0 4.99 2.239 4.99 4.991v11.351z"/><path d="m61.608 52.043c-3.757 0-6.812 3.056-6.812 6.812s3.056 6.812 6.812 6.812 6.812-3.056 6.812-6.812-3.055-6.812-6.812-6.812zm0 10.625c-2.103 0-3.812-1.71-3.812-3.812s1.71-3.812 3.812-3.812 3.812 1.71 3.812 3.812-1.709 3.812-3.812 3.812z"/><circle cx="68.268" cy="51.587" r="1.104"/><path d="m129.518 50.731v-10.504h4.055c.828 0 1.5-.671 1.5-1.5s-.672-1.5-1.5-1.5h-4.055v-1.624c0-1.218.99-2.208 2.208-2.208h2.103c.828 0 1.5-.671 1.5-1.5s-.672-1.5-1.5-1.5h-2.103c-2.872 0-5.208 2.336-5.208 5.208v1.624h-2.522c-.828 0-1.5.671-1.5 1.5s.672 1.5 1.5 1.5h2.522v10.504c0 .829.672 1.5 1.5 1.5s1.5-.671 1.5-1.5z"/><path d="m190.487 67.095c.339.14.692.208 1.043.208.706 0 1.398-.276 1.92-.798l5.729-5.728c1.059-1.06 1.059-2.785-.001-3.844l-5.728-5.728c-.78-.78-1.943-1.011-2.962-.589-1.02.422-1.679 1.408-1.679 2.512v11.456c.001 1.103.659 2.088 1.678 2.511zm1.323-13.287 5.048 5.048-5.048 5.048z"/><path d="m177.394 193.593h6.872c.828 0 1.5-.671 1.5-1.5v-16.008c0-.829-.672-1.5-1.5-1.5h-6.872c-.828 0-1.5.671-1.5 1.5v16.008c0 .829.671 1.5 1.5 1.5zm1.5-16.008h3.872v13.008h-3.872z"/><path d="m190.956 193.593h6.872c.828 0 1.5-.671 1.5-1.5v-18.845c0-.829-.672-1.5-1.5-1.5h-6.872c-.828 0-1.5.671-1.5 1.5v18.845c0 .829.672 1.5 1.5 1.5zm1.5-18.844h3.872v15.845h-3.872z"/><path d="m204.519 193.593h6.872c.828 0 1.5-.671 1.5-1.5v-21.845c0-.829-.672-1.5-1.5-1.5h-6.872c-.828 0-1.5.671-1.5 1.5v21.845c0 .829.671 1.5 1.5 1.5zm1.5-21.844h3.872v18.845h-3.872z"/><path d="m27.323 231.006h-18.003c-.828 0-1.5.671-1.5 1.5s.672 1.5 1.5 1.5h18.003c.828 0 1.5-.671 1.5-1.5s-.672-1.5-1.5-1.5z"/><path d="m246.68 231.006h-18.003c-.828 0-1.5.671-1.5 1.5s.672 1.5 1.5 1.5h18.003c.828 0 1.5-.671 1.5-1.5s-.672-1.5-1.5-1.5z"/><path d="m218.479 231.006h-180.958c-.828 0-1.5.671-1.5 1.5s.672 1.5 1.5 1.5h180.959c.828 0 1.5-.671 1.5-1.5s-.672-1.5-1.501-1.5z"/><path d="m9.32 218.506h100.038 37.283 100.039c.828 0 1.5-.671 1.5-1.5s-.672-1.5-1.5-1.5h-94.572c.649-1.011 1.03-2.209 1.03-3.496v-25.843c0-3.582-2.914-6.496-6.496-6.496h-17.142v-9.936c12.523-.375 23.887-5.417 32.416-13.448l8.406 8.405c-.672 1.023-1.067 2.244-1.067 3.557v25.843c0 3.582 2.914 6.496 6.496 6.496h37.282c3.582 0 6.496-2.914 6.496-6.496v-25.842c0-3.582-2.914-6.496-6.496-6.496h-37.282c-1.184 0-2.291.323-3.248.879l-8.466-8.466c8.352-8.869 13.486-20.801 13.486-33.916s-5.134-25.047-13.486-33.916l8.772-8.772c.884.452 1.882.712 2.941.712h37.282c3.582 0 6.496-2.914 6.496-6.496v-25.845c0-3.582-2.914-6.496-6.496-6.496h-37.282c-3.582 0-6.496 2.914-6.496 6.496v25.843c0 1.435.473 2.758 1.264 3.833l-8.602 8.602c-8.529-8.032-19.893-13.073-32.416-13.448v-9.936h17.142c3.582 0 6.496-2.914 6.496-6.496v-25.842c0-3.582-2.914-6.496-6.496-6.496h-37.283c-3.582 0-6.496 2.914-6.496 6.496v25.843c0 3.582 2.914 6.496 6.496 6.496h17.141v9.936c-12.523.375-23.887 5.416-32.416 13.448l-8.602-8.602c.791-1.076 1.264-2.399 1.264-3.833v-25.844c0-3.582-2.914-6.496-6.496-6.496h-37.283c-3.582 0-6.496 2.914-6.496 6.496v25.843c0 3.582 2.914 6.496 6.496 6.496h37.282c1.059 0 2.057-.26 2.941-.712l8.772 8.772c-8.352 8.869-13.486 20.801-13.486 33.916s5.134 25.047 13.486 33.916l-8.466 8.466c-.957-.555-2.064-.879-3.248-.879h-37.281c-3.582 0-6.496 2.914-6.496 6.496v25.843c0 3.582 2.914 6.496 6.496 6.496h37.282c3.582 0 6.496-2.914 6.496-6.496v-25.841c0-1.313-.394-2.534-1.067-3.557l8.405-8.405c8.529 8.032 19.893 13.073 32.416 13.448v9.936h-17.142c-3.582 0-6.496 2.914-6.496 6.496v25.843c0 1.287.381 2.485 1.03 3.496h-94.571c-.828 0-1.5.671-1.5 1.5s.672 1.499 1.5 1.499zm96.542-164.173v-25.843c0-1.928 1.568-3.496 3.496-3.496h37.283c1.928 0 3.496 1.568 3.496 3.496v25.843c0 1.928-1.568 3.496-3.496 3.496h-37.283c-1.927 0-3.496-1.568-3.496-3.496zm107.171 110.42c1.928 0 3.496 1.568 3.496 3.496v25.843c0 1.928-1.568 3.496-3.496 3.496h-37.282c-1.928 0-3.496-1.568-3.496-3.496v-25.842c0-1.928 1.568-3.496 3.496-3.496h37.282zm-40.778-118.819c0-1.928 1.568-3.496 3.496-3.496h37.282c1.928 0 3.496 1.568 3.496 3.496v25.843c0 1.928-1.568 3.496-3.496 3.496h-37.282c-1.928 0-3.496-1.568-3.496-3.496zm-129.288 29.339c-1.928 0-3.496-1.568-3.496-3.496v-25.843c0-1.928 1.568-3.496 3.496-3.496h37.282c1.928 0 3.496 1.568 3.496 3.496v25.843c0 1.928-1.568 3.496-3.496 3.496zm85.033-1.546c25.653 0 46.523 20.87 46.523 46.523s-20.87 46.523-46.523 46.523-46.523-20.87-46.523-46.523 20.87-46.523 46.523-46.523zm-44.255 120.365c0 1.928-1.568 3.496-3.496 3.496h-37.282c-1.928 0-3.496-1.568-3.496-3.496v-25.842c0-1.928 1.568-3.496 3.496-3.496h37.282c1.928 0 3.496 1.568 3.496 3.496zm22.117 17.918v-25.843c0-1.928 1.568-3.496 3.496-3.496h37.283c1.928 0 3.496 1.568 3.496 3.496v25.843c0 1.928-1.568 3.496-3.496 3.496h-37.283c-1.927 0-3.496-1.568-3.496-3.496z"/></g></g></svg>